<?xml version="1.0" encoding="UTF-8" standalone="no"?>
<svg width="24px" height="24px" viewBox="0 0 24 24" version="1.1" xmlns="http://www.w3.org/2000/svg" xmlns:xlink="http://www.w3.org/1999/xlink" xmlns:sketch="http://www.bohemiancoding.com/sketch/ns">
    <!-- Generator: Sketch 3.2.2 (9983) - http://www.bohemiancoding.com/sketch -->
    <title>person</title>
    <desc>Created with Sketch.</desc>
    <defs></defs>
    <g id="Page-1" stroke="none" stroke-width="1" fill="none" fill-rule="evenodd" sketch:type="MSPage">
        <g id="Desktop" sketch:type="MSArtboardGroup" transform="translate(-183.000000, -583.000000)" fill="#4BBCD2">
            <g id="個人檔案-+-Shape" sketch:type="MSLayerGroup" transform="translate(183.000000, 583.000000)">
                <path d="M12,0 C8.685,0 6,3.357 6,7.5 C6,11.643 8.685,15 12,15 C15.315,15 18,11.643 18,7.5 C18,3.357 15.315,0 12,0 L12,0 Z M5.718,15 C2.508,15.12 0,17.76 0,21 L0,24 L24,24 L24,21 C24,17.76 21.492,15.12 18.282,15 C16.662,16.83 14.43,18 12,18 C9.57,18 7.338,16.83 5.718,15 L5.718,15 Z" id="person" sketch:type="MSShapeGroup"></path>
            </g>
        </g>
    </g>
</svg>