<?xml version="1.0" encoding="UTF-8" standalone="no"?>
<svg width="20px" height="20px" viewBox="0 0 20 20" version="1.1" xmlns="http://www.w3.org/2000/svg" xmlns:xlink="http://www.w3.org/1999/xlink" xmlns:sketch="http://www.bohemiancoding.com/sketch/ns">
    <!-- Generator: Sketch 3.2.2 (9983) - http://www.bohemiancoding.com/sketch -->
    <title>skill</title>
    <desc>Created with Sketch.</desc>
    <defs></defs>
    <g id="Page-1" stroke="none" stroke-width="1" fill="none" fill-rule="evenodd" sketch:type="MSPage">
        <g id="Desktop" sketch:type="MSArtboardGroup" transform="translate(-179.000000, -1658.000000)" fill="#4BBCD2">
            <g id="職涯經歷-+-Shape-2" sketch:type="MSLayerGroup" transform="translate(179.000000, 1652.000000)">
                <path d="M10,6 C4.4925,6 0,10.4925 0,16 C0,21.5075 4.4925,26 10,26 C15.5075,26 20,21.5075 20,16 C20,10.4925 15.5075,6 10,6 L10,6 Z M10,8.5 C14.1575,8.5 17.5,11.8425 17.5,16 C17.5,20.1575 14.1575,23.5 10,23.5 C5.8425,23.5 2.5,20.1575 2.5,16 C2.5,11.8425 5.8425,8.5 10,8.5 L10,8.5 Z M10,11 C7.2525,11 5,13.2525 5,16 C5,18.7475 7.2525,21 10,21 C12.7475,21 15,18.7475 15,16 C15,13.2525 12.7475,11 10,11 L10,11 Z M10,13.5 C11.395,13.5 12.5,14.605 12.5,16 C12.5,17.395 11.395,18.5 10,18.5 C8.605,18.5 7.5,17.395 7.5,16 C7.5,14.605 8.605,13.5 10,13.5 L10,13.5 Z" id="skill" sketch:type="MSShapeGroup"></path>
            </g>
        </g>
    </g>
</svg>