<?xml version="1.0" encoding="UTF-8" standalone="no"?>
<svg width="20px" height="20px" viewBox="0 0 20 20" version="1.1" xmlns="http://www.w3.org/2000/svg" xmlns:xlink="http://www.w3.org/1999/xlink" xmlns:sketch="http://www.bohemiancoding.com/sketch/ns">
    <!-- Generator: Sketch 3.2.2 (9983) - http://www.bohemiancoding.com/sketch -->
    <title>star</title>
    <desc>Created with Sketch.</desc>
    <defs></defs>
    <g id="Page-1" stroke="none" stroke-width="1" fill="none" fill-rule="evenodd" sketch:type="MSPage">
        <g id="Desktop" sketch:type="MSArtboardGroup" transform="translate(-800.000000, -2140.000000)" fill="#000000">
            <g id="Group" sketch:type="MSLayerGroup" transform="translate(368.000000, 2140.000000)">
                <path d="M442,0 C441.31,0 440.75,0.56 440.75,1.25 C440.75,1.94 441.31,2.5 442,2.5 C442.69,2.5 443.25,1.94 443.25,1.25 C443.25,0.56 442.69,0 442,0 L442,0 Z M435.75,2.5 C435.06,2.5 434.5,3.06 434.5,3.75 C434.5,4.44 435.06,5 435.75,5 C436.44,5 437,4.44 437,3.75 C437,3.06 436.44,2.5 435.75,2.5 L435.75,2.5 Z M448.25,2.5 C447.56,2.5 447,3.06 447,3.75 C447,4.44 447.56,5 448.25,5 C448.94,5 449.5,4.44 449.5,3.75 C449.5,3.06 448.94,2.5 448.25,2.5 L448.25,2.5 Z M442,5 C439.2375,5 437,7.2375 437,10 C437,12.7625 439.2375,15 442,15 C444.7625,15 447,12.7625 447,10 C447,7.2375 444.7625,5 442,5 L442,5 Z M433.25,8.75 C432.56,8.75 432,9.31 432,10 C432,10.69 432.56,11.25 433.25,11.25 C433.94,11.25 434.5,10.69 434.5,10 C434.5,9.31 433.94,8.75 433.25,8.75 L433.25,8.75 Z M450.75,8.75 C450.06,8.75 449.5,9.31 449.5,10 C449.5,10.69 450.06,11.25 450.75,11.25 C451.44,11.25 452,10.69 452,10 C452,9.31 451.44,8.75 450.75,8.75 L450.75,8.75 Z M435.75,15 C435.06,15 434.5,15.56 434.5,16.25 C434.5,16.94 435.06,17.5 435.75,17.5 C436.44,17.5 437,16.94 437,16.25 C437,15.56 436.44,15 435.75,15 L435.75,15 Z M448.25,15 C447.56,15 447,15.56 447,16.25 C447,16.94 447.56,17.5 448.25,17.5 C448.94,17.5 449.5,16.94 449.5,16.25 C449.5,15.56 448.94,15 448.25,15 L448.25,15 Z M442,17.5 C441.31,17.5 440.75,18.06 440.75,18.75 C440.75,19.44 441.31,20 442,20 C442.69,20 443.25,19.44 443.25,18.75 C443.25,18.06 442.69,17.5 442,17.5 L442,17.5 Z" id="star" sketch:type="MSShapeGroup"></path>
            </g>
        </g>
    </g>
</svg>