<?xml version="1.0" encoding="UTF-8" standalone="no"?>
<svg width="20px" height="23px" viewBox="0 0 20 23" version="1.1" xmlns="http://www.w3.org/2000/svg" xmlns:xlink="http://www.w3.org/1999/xlink" xmlns:sketch="http://www.bohemiancoding.com/sketch/ns">
    <!-- Generator: Sketch 3.2.2 (9983) - http://www.bohemiancoding.com/sketch -->
    <title>used</title>
    <desc>Created with Sketch.</desc>
    <defs></defs>
    <g id="Page-1" stroke="none" stroke-width="1" fill="none" fill-rule="evenodd" sketch:type="MSPage">
        <g id="Desktop" sketch:type="MSArtboardGroup" transform="translate(-179.000000, -2386.000000)" fill="#4BBCD2">
            <g id="職涯經歷-+-Shape-4" sketch:type="MSLayerGroup" transform="translate(179.000000, 2381.000000)">
                <path d="M5.71428571,5.00287464 L5.71428571,7.87751531 L8.57142857,7.87751531 L8.57142857,7.96662917 C3.72285714,8.65941757 0,12.8736408 0,17.9387577 C0,23.4839395 4.48857143,28 10,28 C15.5114286,28 20,23.4839395 20,17.9387577 C20,16.6451694 19.7542857,15.4263217 19.3742857,14.3454568 L16.6942857,15.3343332 C17,16.208224 17.14,17.047619 17.14,17.9387577 C17.14,21.9373828 13.9714286,25.1253593 9.99714286,25.1253593 C6.02285714,25.1253593 2.85428571,21.9373828 2.85428571,17.9387577 C2.85428571,13.9401325 6.02285714,10.752156 9.99714286,10.752156 C10.8485714,10.752156 11.6685714,10.8987627 12.4971429,11.2005999 L13.48,8.50418698 C12.8485714,8.27134108 12.1342857,8.16210474 11.4257143,8.05574303 L11.4257143,7.87464067 L14.2828571,7.87464067 L14.2828571,5 L5.71142857,5 L5.71428571,5.00287464 Z M20,8.23684539 C0.285714286,5.00287464 9.5,16.2858393 8.92857143,16.8607674 C8.35714286,17.4356955 8.35714286,18.3527059 8.92857143,18.927634 C9.5,19.5025622 10.4114286,19.5025622 10.9828571,18.927634 C11.5542857,18.3814523 20,8.23684539 20,8.23684539 L20,8.23684539 Z" id="used" sketch:type="MSShapeGroup"></path>
            </g>
        </g>
    </g>
</svg>